<svg xmlns="http://www.w3.org/2000/svg" viewBox="0 0 420 262" width="420" height="262" role="img"><rect width="420" height="262" fill="none"/><rect width="420" height="262" fill="none"/><line x1="20" y1="0" x2="20" y2="262" stroke="rgba(233,239,245,0.16)" stroke-width="0.5"/><line x1="40" y1="0" x2="40" y2="262" stroke="rgba(233,239,245,0.16)" stroke-width="0.5"/><line x1="60" y1="0" x2="60" y2="262" stroke="rgba(233,239,245,0.16)" stroke-width="0.5"/><line x1="80" y1="0" x2="80" y2="262" stroke="rgba(233,239,245,0.16)" stroke-width="0.5"/><line x1="100" y1="0" x2="100" y2="262" stroke="rgba(233,239,245,0.16)" stroke-width="0.5"/><line x1="120" y1="0" x2="120" y2="262" stroke="rgba(233,239,245,0.16)" stroke-width="0.5"/><line x1="140" y1="0" x2="140" y2="262" stroke="rgba(233,239,245,0.16)" stroke-width="0.5"/><line x1="160" y1="0" x2="160" y2="262" stroke="rgba(233,239,245,0.16)" stroke-width="0.5"/><line x1="180" y1="0" x2="180" y2="262" stroke="rgba(233,239,245,0.16)" stroke-width="0.5"/><line x1="200" y1="0" x2="200" y2="262" stroke="rgba(233,239,245,0.16)" stroke-width="0.5"/><line x1="220" y1="0" x2="220" y2="262" stroke="rgba(233,239,245,0.16)" stroke-width="0.5"/><line x1="240" y1="0" x2="240" y2="262" stroke="rgba(233,239,245,0.16)" stroke-width="0.5"/><line x1="260" y1="0" x2="260" y2="262" stroke="rgba(233,239,245,0.16)" stroke-width="0.5"/><line x1="280" y1="0" x2="280" y2="262" stroke="rgba(233,239,245,0.16)" stroke-width="0.5"/><line x1="300" y1="0" x2="300" y2="262" stroke="rgba(233,239,245,0.16)" stroke-width="0.5"/><line x1="320" y1="0" x2="320" y2="262" stroke="rgba(233,239,245,0.16)" stroke-width="0.5"/><line x1="340" y1="0" x2="340" y2="262" stroke="rgba(233,239,245,0.16)" stroke-width="0.5"/><line x1="360" y1="0" x2="360" y2="262" stroke="rgba(233,239,245,0.16)" stroke-width="0.5"/><line x1="380" y1="0" x2="380" y2="262" stroke="rgba(233,239,245,0.16)" stroke-width="0.5"/><line x1="400" y1="0" x2="400" y2="262" stroke="rgba(233,239,245,0.16)" stroke-width="0.5"/><line x1="0" y1="20" x2="420" y2="20" stroke="rgba(233,239,245,0.16)" stroke-width="0.5"/><line x1="0" y1="40" x2="420" y2="40" stroke="rgba(233,239,245,0.16)" stroke-width="0.5"/><line x1="0" y1="60" x2="420" y2="60" stroke="rgba(233,239,245,0.16)" stroke-width="0.5"/><line x1="0" y1="80" x2="420" y2="80" stroke="rgba(233,239,245,0.16)" stroke-width="0.5"/><line x1="0" y1="100" x2="420" y2="100" stroke="rgba(233,239,245,0.16)" stroke-width="0.5"/><line x1="0" y1="120" x2="420" y2="120" stroke="rgba(233,239,245,0.16)" stroke-width="0.5"/><line x1="0" y1="140" x2="420" y2="140" stroke="rgba(233,239,245,0.16)" stroke-width="0.5"/><line x1="0" y1="160" x2="420" y2="160" stroke="rgba(233,239,245,0.16)" stroke-width="0.5"/><line x1="0" y1="180" x2="420" y2="180" stroke="rgba(233,239,245,0.16)" stroke-width="0.5"/><line x1="0" y1="200" x2="420" y2="200" stroke="rgba(233,239,245,0.16)" stroke-width="0.5"/><line x1="0" y1="220" x2="420" y2="220" stroke="rgba(233,239,245,0.16)" stroke-width="0.5"/><line x1="0" y1="240" x2="420" y2="240" stroke="rgba(233,239,245,0.16)" stroke-width="0.5"/><line x1="0" y1="260" x2="420" y2="260" stroke="rgba(233,239,245,0.16)" stroke-width="0.5"/><rect x="40" y="16" width="340" height="44" fill="rgba(120,170,220,0.09)" stroke="rgba(233,239,245,0.34)" stroke-width="1"/><text x="60" y="42" font-family="IBM Plex Mono, monospace" font-size="12" fill="#eaf0f6">CLIENT</text><path d="M210 60 L210 78" stroke="rgba(233,239,245,0.34)" stroke-width="1.4"/><path d="M206 72 L210 78 L214 72" fill="none" stroke="rgba(233,239,245,0.34)" stroke-width="1.4"/><rect x="40" y="78" width="340" height="44" fill="rgba(120,170,220,0.09)" stroke="#d97706" stroke-width="2"/><text x="60" y="104" font-family="IBM Plex Mono, monospace" font-size="12" fill="#d97706">API LAYER</text><path d="M210 122 L210 140" stroke="rgba(233,239,245,0.34)" stroke-width="1.4"/><path d="M206 134 L210 140 L214 134" fill="none" stroke="rgba(233,239,245,0.34)" stroke-width="1.4"/><rect x="40" y="140" width="340" height="44" fill="rgba(120,170,220,0.09)" stroke="rgba(233,239,245,0.34)" stroke-width="1"/><text x="60" y="166" font-family="IBM Plex Mono, monospace" font-size="12" fill="#eaf0f6">BUSINESS LOGIC</text><path d="M210 184 L210 202" stroke="rgba(233,239,245,0.34)" stroke-width="1.4"/><path d="M206 196 L210 202 L214 196" fill="none" stroke="rgba(233,239,245,0.34)" stroke-width="1.4"/><rect x="40" y="202" width="340" height="44" fill="rgba(120,170,220,0.09)" stroke="rgba(233,239,245,0.34)" stroke-width="1"/><text x="60" y="228" font-family="IBM Plex Mono, monospace" font-size="12" fill="#eaf0f6">DATABASE</text><ellipse cx="342" cy="212" rx="18" ry="6" fill="none" stroke="#d97706" stroke-width="1.3"/><path d="M324 212v12a18 6 0 0 0 36 0v-12" fill="none" stroke="#d97706" stroke-width="1.3"/></svg>